:FULLY-SPECIFIED
:FORCE-ALL-JOINTS-BE-3DOF
:DEGREES
1427
root -2.08822 13.7094 12.6893 366.659 27.3583 366.554
lfemur 25.5472 -0.201023 -10.3661
ltibia 17.0302 0 0
lfoot -15.6222 34.5354 0
ltoes -25.2299 0 0
rfemur -65.5878 -21.3006 12.0858
rtibia 74.2656 0 0
rfoot -9.28223 9.93797 0
rtoes 4.44618 0 0
lowerback 10.25 2.02294 -10.2653
upperback -3.36184 1.19553 -0.957955
thorax -9.65525 1.1628 4.51856
lowerneck -0.0135629 -11.6599 -10.5312
upperneck 6.15118 -16.0416 9.64607
head 3.4627 -7.97469 3.87553
lclavicle 3.24112e-14 -9.74045e-15 0
lhumerus -73.6359 -18.0435 104.421
lradius 100.807 0 0
lwrist 58.1467 0 0
lhand -9.6761 41.4856 0
lfingers 7.12502 0 0
lthumb 16.2955 -289.179 0
rclavicle 3.24112e-14 -9.74045e-15 0
rhumerus 63.1217 -14.0054 -27.8305
rradius 82.0214 0 0
rwrist 26.9143 0 0
rhand -43.8264 -31.2721 0
rfingers 7.12502 0 0
rthumb -16.6541 -60.5776 0
1428
root -2.09095 13.7089 12.6884 366.659 27.3319 366.513
lfemur 25.5119 -0.17717 -10.3949
ltibia 17.0609 0 0
lfoot -15.5906 34.537 0
ltoes -25.1252 0 0
rfemur -65.6629 -21.3501 12.112
rtibia 74.2691 0 0
rfoot -9.25143 10.0251 0
rtoes 4.48569 0 0
lowerback 10.2162 2.0162 -10.2186
upperback -3.35863 1.19929 -0.936888
thorax -9.63094 1.16138 4.51537
lowerneck -0.0300741 -11.654 -10.5376
upperneck 6.13933 -16.0295 9.62413
head 3.4593 -7.96907 3.87025
lclavicle 8.30602e-14 6.26172e-15 0
lhumerus -73.6538 -18.073 104.451
lradius 100.808 0 0
lwrist 58.204 0 0
lhand -9.58556 41.4222 0
lfingers 7.12502 0 0
lthumb 16.3827 -289.25 0
rclavicle 8.30602e-14 6.26172e-15 0
rhumerus 63.1167 -14.0019 -27.7934
rradius 82.0359 0 0
rwrist 26.7905 0 0
rhand -43.8018 -31.1897 0
rfingers 7.12502 0 0
rthumb -16.6304 -60.4972 0
1429
root -2.09385 13.7096 12.6875 366.657 27.29 366.479
lfemur 25.4769 -0.153496 -10.4235
ltibia 17.0923 0 0
lfoot -15.5599 34.5385 0
ltoes -25.0152 0 0
rfemur -65.7412 -21.4017 12.1392
rtibia 74.2711 0 0
rfoot -9.21944 10.1156 0
rtoes 4.539 0 0
lowerback 10.1998 2.00932 -10.193
upperback -3.36437 1.19648 -0.923438
thorax -9.62655 1.15899 4.51646
lowerneck -0.0430407 -11.652 -10.4902
upperneck 6.15585 -16.0225 9.56096
head 3.45668 -7.96576 3.84452
lclavicle 1.01303e-14 -2.50966e-14 0
lhumerus -73.6921 -18.0711 104.445
lradius 100.788 0 0
lwrist 58.2415 0 0
lhand -9.52497 41.3658 0
lfingers 7.12502 0 0
lthumb 16.441 -289.311 0
rclavicle 1.01303e-14 -2.50966e-14 0
rhumerus 63.1163 -13.9861 -27.7839
rradius 82.059 0 0
rwrist 26.7522 0 0
rhand -43.8098 -31.2493 0
rfingers 7.12502 0 0
rthumb -16.6381 -60.5561 0
1430
root -2.09957 13.7123 12.6833 366.635 27.195 366.258
lfemur 25.4427 -0.130364 -10.4514
ltibia 17.1241 0 0
lfoot -15.5303 34.54 0
ltoes -24.9021 0 0
rfemur -65.8216 -21.4548 12.1673
rtibia 74.277 0 0
rfoot -9.18667 10.2084 0
rtoes 4.60498 0 0
lowerback 10.1946 2.03343 -10.0057
upperback -3.40441 1.25676 -0.878786
thorax -9.67137 1.18165 4.44794
lowerneck -0.030902 -11.6484 -10.4985
upperneck 6.11941 -16.0195 9.60289
head 3.44755 -7.96398 3.85995
lclavicle 1.83682e-14 -1.04859e-14 0
lhumerus -73.7323 -18.1351 104.47
lradius 100.783 0 0
lwrist 58.3211 0 0
lhand -9.50601 41.4282 0
lfingers 7.12502 0 0
lthumb 16.4593 -289.25 0
rclavicle 1.83682e-14 -1.04859e-14 0
rhumerus 62.9961 -13.9145 -27.8302
rradius 82.1492 0 0
rwrist 26.8916 0 0
rhand -43.7956 -31.1258 0
rfingers 7.12502 0 0
rthumb -16.6244 -60.4338 0
